<svg width="20" height="20" viewBox="0 0 20 20" fill="none" xmlns="http://www.w3.org/2000/svg">
<path d="M18.0916 16.9083L14.9999 13.8416C16.2 12.3453 16.7812 10.446 16.6239 8.53434C16.4667 6.62267 15.583 4.84391 14.1545 3.56379C12.7261 2.28368 10.8614 1.59951 8.94402 1.65198C7.02662 1.70445 5.20219 2.48956 3.84587 3.84587C2.48956 5.20219 1.70445 7.02662 1.65198 8.94402C1.59951 10.8614 2.28368 12.7261 3.56379 14.1545C4.84391 15.583 6.62267 16.4667 8.53434 16.6239C10.446 16.7812 12.3453 16.2 13.8416 14.9999L16.9083 18.0666C16.9857 18.1447 17.0779 18.2067 17.1794 18.249C17.281 18.2913 17.3899 18.3131 17.4999 18.3131C17.6099 18.3131 17.7189 18.2913 17.8204 18.249C17.9219 18.2067 18.0141 18.1447 18.0916 18.0666C18.2418 17.9112 18.3257 17.7035 18.3257 17.4874C18.3257 17.2713 18.2418 17.0636 18.0916 16.9083ZM9.16659 14.9999C8.01286 14.9999 6.88505 14.6578 5.92576 14.0168C4.96647 13.3759 4.2188 12.4648 3.77729 11.3989C3.33578 10.333 3.22026 9.16012 3.44534 8.02856C3.67042 6.89701 4.22599 5.8576 5.0418 5.0418C5.8576 4.22599 6.897 3.67042 8.02856 3.44534C9.16012 3.22026 10.333 3.33578 11.3989 3.77729C12.4648 4.2188 13.3759 4.96647 14.0168 5.92576C14.6578 6.88505 14.9999 8.01286 14.9999 9.16659C14.9999 10.7137 14.3853 12.1974 13.2914 13.2914C12.1974 14.3853 10.7137 14.9999 9.16659 14.9999Z" fill="#667479"/>
</svg>
